<svg width="3003" height="357" viewBox="0 0 3003 357" fill="none" xmlns="http://www.w3.org/2000/svg">
<path d="M3001.03 264C2962.53 264 2949.03 244 2902.03 225C2855.03 206 2740.03 207.091 2722.03 212C2704.03 216.909 2661.03 213.5 2579.53 272.5C2498.03 331.5 2468.53 277 2405.53 225C2342.53 173 2288.5 162.5 2222.5 200.5C2156.5 238.5 2150.5 67.5 2082.98 20.2451C1994.47 -41.7053 1886.59 64.3288 1806.81 172.439C1754.33 243.562 1617.9 312.736 1515.66 240.08C1413.41 167.425 1222.5 403.892 1061.19 325.627C963.803 278.378 916.819 234.949 845.026 253C757.526 275 767.418 318.634 707.026 344C646.634 369.366 601.526 350.993 591.058 300.901C580.591 250.809 488.526 230.5 416.026 234C343.526 237.5 276.526 344 193.526 308C110.526 272 123.026 250.5 1.02587 248.5" stroke="#1394D5" stroke-width="2" stroke-linecap="round" stroke-linejoin="round" stroke-dasharray="5 5"/>
</svg>
