<?xml version="1.0" encoding="UTF-8" standalone="no"?>
<svg
   xmlns:dc="http://purl.org/dc/elements/1.1/"
   xmlns:cc="http://creativecommons.org/ns#"
   xmlns:rdf="http://www.w3.org/1999/02/22-rdf-syntax-ns#"
   xmlns:svg="http://www.w3.org/2000/svg"
   xmlns="http://www.w3.org/2000/svg"
   xmlns:sodipodi="http://sodipodi.sourceforge.net/DTD/sodipodi-0.dtd"
   xmlns:inkscape="http://www.inkscape.org/namespaces/inkscape"
   width="3002"
   height="380"
   viewBox="0 0 3002 380"
   fill="none"
   version="1.1"
   id="svg22"
   sodipodi:docname="Green Line.svg"
   inkscape:version="1.0.2-2 (e86c870879, 2021-01-15)">
  <metadata
     id="metadata28">
    <rdf:RDF>
      <cc:Work
         rdf:about="">
        <dc:format>image/svg+xml</dc:format>
        <dc:type
           rdf:resource="http://purl.org/dc/dcmitype/StillImage" />
      </cc:Work>
    </rdf:RDF>
  </metadata>
  <defs
     id="defs26" />
  <sodipodi:namedview
     pagecolor="#ffffff"
     bordercolor="#666666"
     borderopacity="1"
     objecttolerance="10"
     gridtolerance="10"
     guidetolerance="10"
     inkscape:pageopacity="0"
     inkscape:pageshadow="2"
     inkscape:window-width="785"
     inkscape:window-height="480"
     id="namedview24"
     showgrid="false"
     inkscape:zoom="0.46868754"
     inkscape:cx="1501"
     inkscape:cy="190"
     inkscape:window-x="0"
     inkscape:window-y="0"
     inkscape:window-maximized="0"
     inkscape:current-layer="svg22" />
  <path
     d="m 3001,300.5 c -37,0 -118.23,-88.89 -217.5,-87.5 -102.9,1.441 -141.5,39 -161,53 -19.5,14 -115,90.073 -188.5,-2.5 -73.5,-92.573 -123.5,-147.5 -195,-99 -71.5,48.5 -99.82,-99.2102 -156.5,-146 -78.72,-64.9851 -209.88,71.2197 -284.3,174.755 -49.02,68.193 -126.87,150.324 -262.74,17.421 C 1450.53,127.595 1243.45,407.374 1101,334 997.602,280.739 1014.92,253 936,253 833.602,253 773.499,379 693,379 c -80.5,0 -95,-43.5 -124,-93.5 -29,-50 -142.5,-72 -204.5,-34 -62,38 -125.5,46 -176.5,29.5 C 137,264.5 66.9999,249 0.999953,249"
     stroke="#78B301"
     stroke-width="2"
     stroke-linecap="round"
     stroke-linejoin="round"
     stroke-dasharray="5 5"
     id="path20" />
</svg>
