<?xml version="1.0" encoding="UTF-8" standalone="no"?>
<svg
   xmlns:dc="http://purl.org/dc/elements/1.1/"
   xmlns:cc="http://creativecommons.org/ns#"
   xmlns:rdf="http://www.w3.org/1999/02/22-rdf-syntax-ns#"
   xmlns:svg="http://www.w3.org/2000/svg"
   xmlns="http://www.w3.org/2000/svg"
   xmlns:sodipodi="http://sodipodi.sourceforge.net/DTD/sodipodi-0.dtd"
   xmlns:inkscape="http://www.inkscape.org/namespaces/inkscape"
   width="3001"
   height="348"
   viewBox="0 0 3001 348"
   fill="none"
   version="1.1"
   id="svg12"
   sodipodi:docname="Red Line.svg"
   inkscape:version="1.0.2-2 (e86c870879, 2021-01-15)">
  <metadata
     id="metadata18">
    <rdf:RDF>
      <cc:Work
         rdf:about="">
        <dc:format>image/svg+xml</dc:format>
        <dc:type
           rdf:resource="http://purl.org/dc/dcmitype/StillImage" />
      </cc:Work>
    </rdf:RDF>
  </metadata>
  <defs
     id="defs16" />
  <sodipodi:namedview
     pagecolor="#ffffff"
     bordercolor="#666666"
     borderopacity="1"
     objecttolerance="10"
     gridtolerance="10"
     guidetolerance="10"
     inkscape:pageopacity="0"
     inkscape:pageshadow="2"
     inkscape:window-width="803"
     inkscape:window-height="480"
     id="namedview14"
     showgrid="false"
     inkscape:zoom="0.47484172"
     inkscape:cx="1500.5"
     inkscape:cy="174"
     inkscape:window-x="0"
     inkscape:window-y="0"
     inkscape:window-maximized="0"
     inkscape:current-layer="svg12" />
  <path
     d="m 2999.04,260 c 0,0 -61,50.287 -124.5,-5 -63.5,-55.287 -190.5,-52.629 -256.5,-17.5 -66,35.129 -154.5,82.5 -198,25.5 C 2376.54,206 2324,132 2235,181 2146,230 2123.73,51.6984 2075.06,17.5348 2012.59,-26.3035 1898.66,14.0476 1841.2,174.456 1816.11,244.493 1695.29,360.271 1533.39,231.247 1448.01,163.203 1239.57,405.697 1088.16,333.37 992.223,287.539 996.187,267.206 909.772,250.177 817.537,232 774.537,317.5 705.037,333.37 c -69.5,15.87 -113.35,0 -153.5,-50.37 -40.15,-50.37 -132,-57 -177,-32 -45,25 -109.5,69.5 -189,41.5 -79.5,-28 -118,-42.323 -184.00004,-41.5"
     stroke="#DC312F"
     stroke-width="2"
     stroke-linecap="round"
     stroke-linejoin="round"
     stroke-dasharray="5 5"
     id="path10" />
</svg>
